<svg width="174" height="40" viewBox="0 0 174 40" fill="none" xmlns="http://www.w3.org/2000/svg">
<path d="M13.893 32.33C12.089 32.33 10.428 32.044 8.91 31.472C7.414 30.878 6.105 30.053 4.983 28.997C3.861 27.919 2.992 26.654 2.376 25.202C1.76 23.75 1.452 22.166 1.452 20.45C1.452 18.734 1.76 17.15 2.376 15.698C2.992 14.246 3.861 12.992 4.983 11.936C6.127 10.858 7.458 10.033 8.976 9.461C10.494 8.867 12.155 8.57 13.959 8.57C15.917 8.57 17.677 8.889 19.239 9.527C20.823 10.165 22.154 11.1 23.232 12.332L20.526 14.972C19.624 14.07 18.645 13.41 17.589 12.992C16.555 12.552 15.411 12.332 14.157 12.332C12.947 12.332 11.825 12.53 10.791 12.926C9.757 13.322 8.866 13.883 8.118 14.609C7.37 15.335 6.787 16.193 6.369 17.183C5.973 18.173 5.775 19.262 5.775 20.45C5.775 21.616 5.973 22.694 6.369 23.684C6.787 24.674 7.37 25.543 8.118 26.291C8.866 27.017 9.746 27.578 10.758 27.974C11.77 28.37 12.892 28.568 14.124 28.568C15.268 28.568 16.368 28.392 17.424 28.04C18.502 27.666 19.525 27.05 20.493 26.192L22.935 29.393C21.725 30.361 20.317 31.098 18.711 31.604C17.127 32.088 15.521 32.33 13.893 32.33ZM18.876 28.832V20.186H22.935V29.393L18.876 28.832ZM39.0542 32V28.436L38.8232 27.677V21.44C38.8232 20.23 38.4602 19.295 37.7342 18.635C37.0082 17.953 35.9082 17.612 34.4342 17.612C33.4442 17.612 32.4652 17.766 31.4972 18.074C30.5512 18.382 29.7482 18.811 29.0882 19.361L27.4712 16.358C28.4172 15.632 29.5392 15.093 30.8372 14.741C32.1572 14.367 33.5212 14.18 34.9292 14.18C37.4812 14.18 39.4502 14.796 40.8362 16.028C42.2442 17.238 42.9482 19.119 42.9482 21.671V32H39.0542ZM33.5102 32.231C32.1902 32.231 31.0352 32.011 30.0452 31.571C29.0552 31.109 28.2852 30.482 27.7352 29.69C27.2072 28.876 26.9432 27.963 26.9432 26.951C26.9432 25.961 27.1742 25.07 27.6362 24.278C28.1202 23.486 28.9012 22.859 29.9792 22.397C31.0572 21.935 32.4872 21.704 34.2692 21.704H39.3842V24.443H34.5662C33.1582 24.443 32.2122 24.674 31.7282 25.136C31.2442 25.576 31.0022 26.126 31.0022 26.786C31.0022 27.534 31.2992 28.128 31.8932 28.568C32.4872 29.008 33.3122 29.228 34.3682 29.228C35.3802 29.228 36.2822 28.997 37.0742 28.535C37.8882 28.073 38.4712 27.391 38.8232 26.489L39.5162 28.964C39.1202 29.998 38.4052 30.801 37.3712 31.373C36.3592 31.945 35.0722 32.231 33.5102 32.231ZM70.4841 14.18C71.8921 14.18 73.1351 14.455 74.2131 15.005C75.3131 15.555 76.1711 16.402 76.7871 17.546C77.4031 18.668 77.7111 20.12 77.7111 21.902V32H73.5861V22.43C73.5861 20.868 73.2451 19.702 72.5631 18.932C71.8811 18.162 70.9021 17.777 69.6261 17.777C68.7241 17.777 67.9211 17.975 67.2171 18.371C66.5351 18.767 65.9961 19.35 65.6001 20.12C65.2261 20.89 65.0391 21.869 65.0391 23.057V32H60.9141V22.43C60.9141 20.868 60.5731 19.702 59.8911 18.932C59.2091 18.162 58.2301 17.777 56.9541 17.777C56.0521 17.777 55.2491 17.975 54.5451 18.371C53.8631 18.767 53.3241 19.35 52.9281 20.12C52.5541 20.89 52.3671 21.869 52.3671 23.057V32H48.2421V14.378H52.1691V19.064L51.4761 17.678C52.0701 16.534 52.9281 15.665 54.0501 15.071C55.1941 14.477 56.4921 14.18 57.9441 14.18C59.5941 14.18 61.0241 14.587 62.2341 15.401C63.4661 16.215 64.2801 17.447 64.6761 19.097L63.0591 18.536C63.6311 17.216 64.5771 16.16 65.8971 15.368C67.2171 14.576 68.7461 14.18 70.4841 14.18ZM91.2976 32.231C89.3396 32.231 87.6236 31.846 86.1496 31.076C84.6976 30.284 83.5646 29.206 82.7506 27.842C81.9586 26.478 81.5626 24.927 81.5626 23.189C81.5626 21.429 81.9476 19.878 82.7176 18.536C83.5096 17.172 84.5876 16.105 85.9516 15.335C87.3376 14.565 88.9106 14.18 90.6706 14.18C92.3866 14.18 93.9156 14.554 95.2576 15.302C96.5996 16.05 97.6556 17.106 98.4256 18.47C99.1956 19.834 99.5806 21.44 99.5806 23.288C99.5806 23.464 99.5696 23.662 99.5476 23.882C99.5476 24.102 99.5366 24.311 99.5146 24.509H84.8296V21.77H97.3366L95.7196 22.628C95.7416 21.616 95.5326 20.725 95.0926 19.955C94.6526 19.185 94.0476 18.58 93.2776 18.14C92.5296 17.7 91.6606 17.48 90.6706 17.48C89.6586 17.48 88.7676 17.7 87.9976 18.14C87.2496 18.58 86.6556 19.196 86.2156 19.988C85.7976 20.758 85.5886 21.671 85.5886 22.727V23.387C85.5886 24.443 85.8306 25.378 86.3146 26.192C86.7986 27.006 87.4806 27.633 88.3606 28.073C89.2406 28.513 90.2526 28.733 91.3966 28.733C92.3866 28.733 93.2776 28.579 94.0696 28.271C94.8616 27.963 95.5656 27.479 96.1816 26.819L98.3926 29.36C97.6006 30.284 96.5996 30.999 95.3896 31.505C94.2016 31.989 92.8376 32.231 91.2976 32.231Z" fill="black"/>
<path d="M118.754 8.9H125.288V32H118.754V8.9ZM109.844 32H103.31V8.9H109.844V32ZM119.216 22.991H109.382V17.579H119.216V22.991ZM137.124 32.297C135.672 32.297 134.363 32.011 133.197 31.439C132.053 30.867 131.151 29.976 130.491 28.766C129.853 27.534 129.534 25.983 129.534 24.113V14.114H135.804V23.09C135.804 24.476 136.057 25.466 136.563 26.06C137.091 26.654 137.828 26.951 138.774 26.951C139.39 26.951 139.951 26.808 140.457 26.522C140.963 26.236 141.37 25.785 141.678 25.169C141.986 24.531 142.14 23.717 142.14 22.727V14.114H148.41V32H142.437V26.951L143.592 28.37C142.976 29.69 142.085 30.68 140.919 31.34C139.753 31.978 138.488 32.297 137.124 32.297ZM163.702 32.297C162.096 32.297 160.754 31.967 159.676 31.307C158.62 30.647 157.828 29.635 157.3 28.271C156.772 26.907 156.508 25.158 156.508 23.024C156.508 20.934 156.783 19.207 157.333 17.843C157.905 16.479 158.73 15.467 159.808 14.807C160.886 14.147 162.184 13.817 163.702 13.817C165.33 13.817 166.804 14.191 168.124 14.939C169.466 15.687 170.522 16.754 171.292 18.14C172.084 19.504 172.48 21.132 172.48 23.024C172.48 24.938 172.084 26.588 171.292 27.974C170.522 29.338 169.466 30.405 168.124 31.175C166.804 31.923 165.33 32.297 163.702 32.297ZM152.449 32V7.514H158.719V17.117L158.389 23.024L158.422 28.931V32H152.449ZM162.382 27.314C163.086 27.314 163.713 27.149 164.263 26.819C164.835 26.489 165.286 26.005 165.616 25.367C165.968 24.707 166.144 23.926 166.144 23.024C166.144 22.122 165.968 21.363 165.616 20.747C165.286 20.109 164.835 19.625 164.263 19.295C163.713 18.965 163.086 18.8 162.382 18.8C161.678 18.8 161.04 18.965 160.468 19.295C159.918 19.625 159.467 20.109 159.115 20.747C158.785 21.363 158.62 22.122 158.62 23.024C158.62 23.926 158.785 24.707 159.115 25.367C159.467 26.005 159.918 26.489 160.468 26.819C161.04 27.149 161.678 27.314 162.382 27.314Z" fill="#3865D7"/>
</svg>
