<svg width="169" height="39" viewBox="0 0 169 39" fill="none" xmlns="http://www.w3.org/2000/svg">
<path d="M13.472 31.32C11.7227 31.32 10.112 31.0427 8.64 30.488C7.18933 29.912 5.92 29.112 4.832 28.088C3.744 27.0427 2.90133 25.816 2.304 24.408C1.70667 23 1.408 21.464 1.408 19.8C1.408 18.136 1.70667 16.6 2.304 15.192C2.90133 13.784 3.744 12.568 4.832 11.544C5.94133 10.4987 7.232 9.69867 8.704 9.144C10.176 8.568 11.7867 8.28 13.536 8.28C15.4347 8.28 17.1413 8.58933 18.656 9.208C20.192 9.82667 21.4827 10.7333 22.528 11.928L19.904 14.488C19.0293 13.6133 18.08 12.9733 17.056 12.568C16.0533 12.1413 14.944 11.928 13.728 11.928C12.5547 11.928 11.4667 12.12 10.464 12.504C9.46133 12.888 8.59733 13.432 7.872 14.136C7.14667 14.84 6.58133 15.672 6.176 16.632C5.792 17.592 5.6 18.648 5.6 19.8C5.6 20.9307 5.792 21.976 6.176 22.936C6.58133 23.896 7.14667 24.7387 7.872 25.464C8.59733 26.168 9.45067 26.712 10.432 27.096C11.4133 27.48 12.5013 27.672 13.696 27.672C14.8053 27.672 15.872 27.5013 16.896 27.16C17.9413 26.7973 18.9333 26.2 19.872 25.368L22.24 28.472C21.0667 29.4107 19.7013 30.1253 18.144 30.616C16.608 31.0853 15.0507 31.32 13.472 31.32ZM18.304 27.928V19.544H22.24V28.472L18.304 27.928ZM37.8708 31V27.544L37.6468 26.808V20.76C37.6468 19.5867 37.2948 18.68 36.5908 18.04C35.8868 17.3787 34.8201 17.048 33.3908 17.048C32.4308 17.048 31.4814 17.1973 30.5428 17.496C29.6254 17.7947 28.8468 18.2107 28.2068 18.744L26.6388 15.832C27.5561 15.128 28.6441 14.6053 29.9028 14.264C31.1828 13.9013 32.5054 13.72 33.8708 13.72C36.3454 13.72 38.2548 14.3173 39.5988 15.512C40.9641 16.6853 41.6468 18.5093 41.6468 20.984V31H37.8708ZM32.4948 31.224C31.2148 31.224 30.0948 31.0107 29.1348 30.584C28.1748 30.136 27.4281 29.528 26.8948 28.76C26.3828 27.9707 26.1268 27.0853 26.1268 26.104C26.1268 25.144 26.3508 24.28 26.7988 23.512C27.2681 22.744 28.0254 22.136 29.0708 21.688C30.1161 21.24 31.5028 21.016 33.2308 21.016H38.1908V23.672H33.5188C32.1534 23.672 31.2361 23.896 30.7668 24.344C30.2974 24.7707 30.0628 25.304 30.0628 25.944C30.0628 26.6693 30.3508 27.2453 30.9268 27.672C31.5028 28.0987 32.3028 28.312 33.3268 28.312C34.3081 28.312 35.1828 28.088 35.9508 27.64C36.7401 27.192 37.3054 26.5307 37.6468 25.656L38.3188 28.056C37.9348 29.0587 37.2414 29.8373 36.2388 30.392C35.2574 30.9467 34.0094 31.224 32.4948 31.224ZM68.3483 13.72C69.7136 13.72 70.9189 13.9867 71.9643 14.52C73.0309 15.0533 73.8629 15.8747 74.4603 16.984C75.0576 18.072 75.3563 19.48 75.3563 21.208V31H71.3563V21.72C71.3563 20.2053 71.0256 19.0747 70.3643 18.328C69.7029 17.5813 68.7536 17.208 67.5163 17.208C66.6416 17.208 65.8629 17.4 65.1803 17.784C64.5189 18.168 63.9963 18.7333 63.6123 19.48C63.2496 20.2267 63.0683 21.176 63.0683 22.328V31H59.0683V21.72C59.0683 20.2053 58.7376 19.0747 58.0763 18.328C57.4149 17.5813 56.4656 17.208 55.2283 17.208C54.3536 17.208 53.5749 17.4 52.8923 17.784C52.2309 18.168 51.7083 18.7333 51.3243 19.48C50.9616 20.2267 50.7803 21.176 50.7803 22.328V31H46.7803V13.912H50.5883V18.456L49.9163 17.112C50.4923 16.0027 51.3243 15.16 52.4123 14.584C53.5216 14.008 54.7803 13.72 56.1883 13.72C57.7883 13.72 59.1749 14.1147 60.3483 14.904C61.5429 15.6933 62.3323 16.888 62.7163 18.488L61.1483 17.944C61.7029 16.664 62.6203 15.64 63.9003 14.872C65.1803 14.104 66.6629 13.72 68.3483 13.72ZM88.531 31.224C86.6323 31.224 84.9683 30.8507 83.539 30.104C82.131 29.336 81.0323 28.2907 80.243 26.968C79.475 25.6453 79.091 24.1413 79.091 22.456C79.091 20.7493 79.4643 19.2453 80.211 17.944C80.979 16.6213 82.0243 15.5867 83.347 14.84C84.691 14.0933 86.2163 13.72 87.923 13.72C89.587 13.72 91.0697 14.0827 92.371 14.808C93.6723 15.5333 94.6963 16.5573 95.443 17.88C96.1897 19.2027 96.563 20.76 96.563 22.552C96.563 22.7227 96.5523 22.9147 96.531 23.128C96.531 23.3413 96.5203 23.544 96.499 23.736H82.259V21.08H94.387L92.819 21.912C92.8403 20.9307 92.6377 20.0667 92.211 19.32C91.7843 18.5733 91.1977 17.9867 90.451 17.56C89.7257 17.1333 88.883 16.92 87.923 16.92C86.9417 16.92 86.0777 17.1333 85.331 17.56C84.6057 17.9867 84.0297 18.584 83.603 19.352C83.1977 20.0987 82.995 20.984 82.995 22.008V22.648C82.995 23.672 83.2297 24.5787 83.699 25.368C84.1683 26.1573 84.8297 26.7653 85.683 27.192C86.5363 27.6187 87.5177 27.832 88.627 27.832C89.587 27.832 90.451 27.6827 91.219 27.384C91.987 27.0853 92.6697 26.616 93.267 25.976L95.411 28.44C94.643 29.336 93.6723 30.0293 92.499 30.52C91.347 30.9893 90.0243 31.224 88.531 31.224Z" fill="black"/>
<path d="M115.216 8.6H121.552V31H115.216V8.6ZM106.576 31H100.24V8.6H106.576V31ZM115.664 22.264H106.128V17.016H115.664V22.264ZM133.029 31.288C131.621 31.288 130.352 31.0107 129.221 30.456C128.112 29.9013 127.237 29.0373 126.597 27.864C125.979 26.6693 125.669 25.1653 125.669 23.352V13.656H131.749V22.36C131.749 23.704 131.995 24.664 132.485 25.24C132.997 25.816 133.712 26.104 134.629 26.104C135.227 26.104 135.771 25.9653 136.261 25.688C136.752 25.4107 137.147 24.9733 137.445 24.376C137.744 23.7573 137.893 22.968 137.893 22.008V13.656H143.973V31H138.181V26.104L139.301 27.48C138.704 28.76 137.84 29.72 136.709 30.36C135.579 30.9787 134.352 31.288 133.029 31.288ZM158.802 31.288C157.244 31.288 155.943 30.968 154.898 30.328C153.874 29.688 153.106 28.7067 152.594 27.384C152.082 26.0613 151.826 24.3653 151.826 22.296C151.826 20.2693 152.092 18.5947 152.626 17.272C153.18 15.9493 153.98 14.968 155.026 14.328C156.071 13.688 157.33 13.368 158.802 13.368C160.38 13.368 161.81 13.7307 163.09 14.456C164.391 15.1813 165.415 16.216 166.162 17.56C166.93 18.8827 167.314 20.4613 167.314 22.296C167.314 24.152 166.93 25.752 166.162 27.096C165.415 28.4187 164.391 29.4533 163.09 30.2C161.81 30.9253 160.38 31.288 158.802 31.288ZM147.89 31V7.256H153.97V16.568L153.65 22.296L153.682 28.024V31H147.89ZM157.522 26.456C158.204 26.456 158.812 26.296 159.346 25.976C159.9 25.656 160.338 25.1867 160.658 24.568C160.999 23.928 161.17 23.1707 161.17 22.296C161.17 21.4213 160.999 20.6853 160.658 20.088C160.338 19.4693 159.9 19 159.346 18.68C158.812 18.36 158.204 18.2 157.522 18.2C156.839 18.2 156.22 18.36 155.666 18.68C155.132 19 154.695 19.4693 154.354 20.088C154.034 20.6853 153.874 21.4213 153.874 22.296C153.874 23.1707 154.034 23.928 154.354 24.568C154.695 25.1867 155.132 25.656 155.666 25.976C156.22 26.296 156.839 26.456 157.522 26.456Z" fill="#3865D7"/>
</svg>
