<svg width="44" height="39" viewBox="0 0 44 39" fill="none" xmlns="http://www.w3.org/2000/svg">
<path d="M35.216 8.6H41.552V31H35.216V8.6ZM26.576 31H20.24V8.6H26.576V31ZM35.664 22.264H26.128V17.016H35.664V22.264Z" fill="#3865D7"/>
<path d="M13.472 31.32C11.7227 31.32 10.112 31.0427 8.64 30.488C7.18933 29.912 5.92 29.112 4.832 28.088C3.744 27.0427 2.90133 25.816 2.304 24.408C1.70667 23 1.408 21.464 1.408 19.8C1.408 18.136 1.70667 16.6 2.304 15.192C2.90133 13.784 3.744 12.568 4.832 11.544C5.94133 10.4987 7.232 9.69867 8.704 9.144C10.176 8.568 11.7867 8.28 13.536 8.28C15.4347 8.28 17.1413 8.58933 18.656 9.208C20.192 9.82667 21.4827 10.7333 22.528 11.928L19.904 14.488C19.0293 13.6133 18.08 12.9733 17.056 12.568C16.0533 12.1413 14.944 11.928 13.728 11.928C12.5547 11.928 11.4667 12.12 10.464 12.504C9.46133 12.888 8.59733 13.432 7.872 14.136C7.14667 14.84 6.58133 15.672 6.176 16.632C5.792 17.592 5.6 18.648 5.6 19.8C5.6 20.9307 5.792 21.976 6.176 22.936C6.58133 23.896 7.14667 24.7387 7.872 25.464C8.59733 26.168 9.45067 26.712 10.432 27.096C11.4133 27.48 12.5013 27.672 13.696 27.672C14.8053 27.672 15.872 27.5013 16.896 27.16C17.9413 26.7973 18.9333 26.2 19.872 25.368L22.24 28.472C21.0667 29.4107 19.7013 30.1253 18.144 30.616C16.608 31.0853 15.0507 31.32 13.472 31.32ZM18.304 27.928V19.544H22.24V28.472L18.304 27.928Z" fill="black"/>
</svg>
